<svg xmlns="http://www.w3.org/2000/svg" width="106" height="51">
    <path fill="#FFF" fill-rule="evenodd" d="M98.635 36.839h-3.279l2.251-5.269-4.82-11.942h3.474l1.835 5.245 1.15 3.422 1.248-3.349 2.203-5.318H106l-7.365 17.211zm-10.62-22.283h2.961v17.211h-2.961V14.556zm-5.482 15.438c-.685 1.428-2.569 2.117-3.915 2.142-3.572.025-6.215-2.191-6.215-6.451 0-4.186 2.765-6.377 6.289-6.352 1.615 0 3.156.763 3.841 1.969l.098-1.674h2.863v12.139H82.68l-.147-1.773zm-3.572-7.977c-1.982 0-3.573 1.354-3.573 3.668s1.591 3.693 3.573 3.693c4.698 0 4.698-7.361 0-7.361zm-12.969 2.289c2.275.148 5.163.665 5.163 3.89 0 2.143-1.738 3.989-5.188 3.989-1.908 0-3.817-.32-5.579-2.166l1.469-2.143c.856.961 2.813 1.675 4.159 1.699 1.126.025 2.178-.566 2.178-1.452 0-.837-.685-1.182-2.398-1.281-2.276-.172-4.992-1.009-4.992-3.767 0-2.807 2.888-3.791 5.09-3.791 1.884 0 3.303.369 4.698 1.6l-1.664 1.97c-.856-.813-1.835-1.084-2.985-1.084-1.419 0-2.202.443-2.202 1.207 0 .788.709 1.231 2.251 1.329zm-10.449 5.836c-1.248 1.231-2.398 1.822-4.086 1.822-2.888 0-4.992-2.192-4.992-5.959v-6.377h2.985v6.353c0 1.846 1.004 3.25 2.912 3.25 1.835 0 3.083-1.552 3.083-3.398v-6.205h2.961v12.163h-2.667l-.196-1.649zm-14.046-.148c-.685 1.428-2.569 2.117-3.915 2.142-3.572.025-6.215-2.191-6.215-6.451 0-4.186 2.765-6.377 6.288-6.352 1.615 0 3.157.763 3.842 1.969l.098-1.674h2.863v12.139h-2.814l-.147-1.773zm-3.572-7.977c-1.982 0-3.573 1.354-3.573 3.668s1.591 3.693 3.573 3.693c4.698 0 4.698-7.361 0-7.361zM25.504 10.985c-3.01 0-5.458-2.464-5.458-5.493C20.046 2.464 22.494 0 25.504 0c3.01 0 5.459 2.464 5.459 5.492 0 3.029-2.449 5.493-5.459 5.493zm0-9.481c-2.185 0-3.963 1.789-3.963 3.988s1.778 3.988 3.963 3.988c2.186 0 3.964-1.789 3.964-3.988s-1.778-3.988-3.964-3.988zm-.005 7.088c-1.727 0-3.128-1.41-3.128-3.148a3.138 3.138 0 0 1 3.128-3.148 3.138 3.138 0 0 1 3.129 3.148 3.139 3.139 0 0 1-3.129 3.148zM10.638 20.97L9.54 19.865 19.763 9.578l1.098 1.106L10.638 20.97zM5.459 31.118C2.449 31.118 0 28.654 0 25.626c0-3.029 2.449-5.493 5.459-5.493 3.009 0 5.458 2.464 5.458 5.493 0 3.028-2.449 5.492-5.458 5.492zm0-9.481c-2.186 0-3.964 1.79-3.964 3.989s1.778 3.988 3.964 3.988c2.185 0 3.963-1.789 3.963-3.988s-1.778-3.989-3.963-3.989zm-.005 7.088a3.138 3.138 0 0 1-3.129-3.148 3.139 3.139 0 0 1 3.129-3.148 3.138 3.138 0 0 1 3.128 3.148c0 1.739-1.4 3.148-3.128 3.148zm15.587 11.508l-1.098 1.106L9.72 31.052l1.099-1.105 10.222 10.286zm5.016-10.978c.954 0 1.908-.271 2.642-1.009l2.007 1.969c-1.395 1.379-2.863 1.921-4.649 1.921-3.499 0-6.411-2.117-6.411-6.426s2.912-6.426 6.411-6.426c1.713 0 3.034.492 4.355 1.797l-1.884 1.994c-.709-.64-1.59-.96-2.422-.96-2.007 0-3.475 1.477-3.475 3.595 0 2.314 1.566 3.545 3.426 3.545zm-.558 10.759c3.01 0 5.459 2.464 5.459 5.492 0 3.029-2.449 5.493-5.459 5.493-3.009 0-5.458-2.464-5.458-5.493 0-3.028 2.449-5.492 5.458-5.492zm0 9.48c2.186 0 3.964-1.789 3.964-3.988s-1.778-3.988-3.964-3.988c-2.185 0-3.963 1.789-3.963 3.988s1.778 3.988 3.963 3.988zm-.004-7.184a3.137 3.137 0 0 1 3.128 3.148c0 1.738-1.4 3.148-3.128 3.148a3.139 3.139 0 0 1-3.129-3.148 3.138 3.138 0 0 1 3.129-3.148z"/>
</svg>
