<?xml version="1.0" encoding="UTF-8" standalone="no"?>
<!DOCTYPE svg PUBLIC "-//W3C//DTD SVG 1.1//EN" "http://www.w3.org/Graphics/SVG/1.1/DTD/svg11.dtd">
<svg width="100%" height="100%" viewBox="0 0 800 254" version="1.1" xmlns="http://www.w3.org/2000/svg" xmlns:xlink="http://www.w3.org/1999/xlink" xml:space="preserve" style="fill-rule:evenodd;clip-rule:evenodd;stroke-linejoin:round;stroke-miterlimit:1.41421;">
    <g id="Layer-1">
        <path d="M734.822,182.69C710.833,182.69 689.603,161.46 689.603,137.474C689.603,112.935 710.833,92.806 734.822,92.806C759.362,92.806 777.834,112.935 777.834,137.474C777.834,161.46 759.362,182.69 734.822,182.69M734.271,74.609C715.799,74.609 699.53,83.155 688.501,96.39L688.501,76.537L670.029,76.537L670.029,253L688.501,253L688.501,178.555C699.53,192.066 715.799,200.891 734.271,200.891C768.737,200.891 797.136,171.386 797.136,137.474C797.136,103.008 768.737,74.609 734.271,74.609" style="fill:white;fill-rule:nonzero;"/>
        <path d="M393.232,128.375C397.367,108.246 414.462,92.807 435.968,92.807C457.199,92.807 474.57,108.246 478.705,128.375L393.232,128.375ZM498.834,137.475C498.834,103.009 470.435,74.61 435.968,74.61C401.503,74.61 373.103,103.009 373.103,137.475C373.103,171.387 401.503,200.892 435.968,200.892C460.508,200.892 482.29,186.83 492.491,165.875L469.605,165.875C461.885,175.801 450.03,182.691 435.968,182.691C414.462,182.691 397.092,166.15 393.232,146.021L498.834,146.021L498.834,137.475Z" style="fill:white;fill-rule:nonzero;"/>
        <path d="M538.248,128.375C542.383,108.246 559.478,92.807 580.985,92.807C602.215,92.807 619.586,108.246 623.721,128.375L538.248,128.375ZM643.85,137.475C643.85,103.009 615.451,74.61 580.985,74.61C546.519,74.61 518.119,103.009 518.119,137.475C518.119,171.387 546.519,200.892 580.985,200.892C605.524,200.892 627.306,186.83 637.508,165.875L614.621,165.875C606.901,175.801 595.046,182.691 580.985,182.691C559.478,182.691 542.108,166.15 538.248,146.021L643.85,146.021L643.85,137.475Z" style="fill:white;fill-rule:nonzero;"/>
        <path d="M266.307,253L368.187,76.538" style="fill:rgb(132,146,166);fill-rule:nonzero;"/>
        <path d="M254.434,232.437L285.557,178.531L238.544,97.101L250.416,76.537L297.429,157.967L344.442,76.537L368.187,76.537L266.307,252.999L254.434,232.437Z" style="fill:white;fill-rule:nonzero;"/>
        <clipPath id="_clip1">
            <path d="M2.863,51.462L43.562,121.954L101.831,121.954L31.998,1L2.863,51.462ZM43.562,132.046L2.863,202.538L31.998,253L101.831,132.046L43.562,132.046Z"/>
        </clipPath>
        <g clip-path="url(#_clip1)">
            <path d="M-94.002,127L31.998,1L157.998,127L31.998,253L-94.002,127Z" style="fill:white;fill-rule:nonzero;"/>
        </g>
        <clipPath id="_clip2">
            <path d="M90.266,1L133.879,76.538L177.49,1L90.266,1Z"/>
        </clipPath>
        <g clip-path="url(#_clip2)">
            <path d="M74.304,16.963L133.878,-42.612L193.454,16.963L133.879,76.538L74.304,16.963Z" style="fill:white;fill-rule:nonzero;"/>
        </g>
    </g>
</svg>
